<svg width="200" height="200" viewBox="0 0 200 200" fill="none" xmlns="http://www.w3.org/2000/svg">
  <rect width="200" height="200" rx="40" fill="#0D9488"/>
  <path d="M60 70C60 64.4772 77.9086 60 100 60C122.091 60 140 64.4772 140 70M60 70C60 75.5228 77.9086 80 100 80C122.091 80 140 75.5228 140 70M60 70V130C60 135.523 77.9086 140 100 140C122.091 140 140 135.523 140 130V70M140 100C140 105.523 122.091 110 100 110C77.9086 110 60 105.523 60 100" stroke="white" stroke-width="12" stroke-linecap="round" stroke-linejoin="round"/>
  <path d="M110 130L150 170M150 130L110 170" stroke="#5EEAD4" stroke-width="15" stroke-linecap="round"/>
</svg>
